PathFileType	4	(X/Y/Z)	Kaydara	
DataRate	CameraRate	NumFrames	NumMarkers	Units	OrigDataRate	OrigDataStartFrame	OrigNumFrames	
120.00	120.00	4	72	mm	120.00	164	261	
Frame#	Time	Hips			RightUpLeg			RightLeg			RightFoot			RightFoot_End			LeftUpLeg			LeftLeg			LeftFoot			LeftFoot_End			Spine			Spine1			Spine2			Spine3			Neck			Head			Head_End			RightShoulder			RightArm			RightForeArm			RightHand			RightHandThumb1			RightHandThumb2			RightHandThumb3			RightHandThumb3_End			RightInHandIndex			RightHandIndex1			RightHandIndex2			RightHandIndex3			RightHandIndex3_End			RightInHandMiddle			RightHandMiddle1			RightHandMiddle2			RightHandMiddle3			RightHandMiddle3_End			RightInHandRing			RightHandRing1			RightHandRing2			RightHandRing3			RightHandRing3_End			RightInHandPinky			RightHandPinky1			RightHandPinky2			RightHandPinky3			RightHandPinky3_End			LeftShoulder			LeftArm			LeftForeArm			LeftHand			LeftHandThumb1			LeftHandThumb2			LeftHandThumb3			LeftHandThumb3_End			LeftInHandIndex			LeftHandIndex1			LeftHandIndex2			LeftHandIndex3			LeftHandIndex3_End			LeftInHandMiddle			LeftHandMiddle1			LeftHandMiddle2			LeftHandMiddle3			LeftHandMiddle3_End			LeftInHandRing			LeftHandRing1			LeftHandRing2			LeftHandRing3			LeftHandRing3_End			LeftInHandPinky			LeftHandPinky1			LeftHandPinky2			LeftHandPinky3			LeftHandPinky3_End			
		X1	Y1	Z1	X2	Y2	Z2	X3	Y3	Z3	X4	Y4	Z4	X5	Y5	Z5	X6	Y6	Z6	X7	Y7	Z7	X8	Y8	Z8	X9	Y9	Z9	X10	Y10	Z10	X11	Y11	Z11	X12	Y12	Z12	X13	Y13	Z13	X14	Y14	Z14	X15	Y15	Z15	X16	Y16	Z16	X17	Y17	Z17	X18	Y18	Z18	X19	Y19	Z19	X20	Y20	Z20	X21	Y21	Z21	X22	Y22	Z22	X23	Y23	Z23	X24	Y24	Z24	X25	Y25	Z25	X26	Y26	Z26	X27	Y27	Z27	X28	Y28	Z28	X29	Y29	Z29	X30	Y30	Z30	X31	Y31	Z31	X32	Y32	Z32	X33	Y33	Z33	X34	Y34	Z34	X35	Y35	Z35	X36	Y36	Z36	X37	Y37	Z37	X38	Y38	Z38	X39	Y39	Z39	X40	Y40	Z40	X41	Y41	Z41	X42	Y42	Z42	X43	Y43	Z43	X44	Y44	Z44	X45	Y45	Z45	X46	Y46	Z46	X47	Y47	Z47	X48	Y48	Z48	X49	Y49	Z49	X50	Y50	Z50	X51	Y51	Z51	X52	Y52	Z52	X53	Y53	Z53	X54	Y54	Z54	X55	Y55	Z55	X56	Y56	Z56	X57	Y57	Z57	X58	Y58	Z58	X59	Y59	Z59	X60	Y60	Z60	X61	Y61	Z61	X62	Y62	Z62	X63	Y63	Z63	X64	Y64	Z64	X65	Y65	Z65	X66	Y66	Z66	X67	Y67	Z67	X68	Y68	Z68	X69	Y69	Z69	X70	Y70	Z70	X71	Y71	Z71	X72	Y72	Z72	

164	1.358	3081.203	893.81699	129.612	3135.556647850606	880.8952016268706	86.28856060274498	3033.2102198894613	478.0154621559522	49.02723847487393	3076.3987813378685	115.66076022573692	-18.4015361294222	2983.9995317251887	31.75873979797756	121.20777523104633	3037.8851577896735	880.2895848034815	187.17857785870538	2929.9876670375756	492.1307043915124	299.8043114138377	2814.3605124627716	89.88886468250384	428.71347190925525	2670.872781878853	35.073874859171156	317.1555186994481	3032.4682160024095	1015.7668813461064	73.65515785794527	2979.5719898492603	1080.7163386107225	24.630257316003597	2920.39213116928	1143.0458398625155	-28.586207408486928	2858.4565038647775	1194.170088801805	-83.05065178409556	2790.750985035397	1249.6671901001384	-138.6918457463085	2721.0037946626667	1294.7483853828915	-181.90010693904344	2581.736346639485	1371.380072718903	-191.90774863909024	2827.1487778667915	1236.3821631338697	-132.58071692036066	2879.253757147645	1254.999709685175	-177.95894152685202	2978.1634023560327	1094.980617709238	-202.85346938119727	3086.843511889218	1031.6498830379096	-261.0221635696819	3097.072645684825	1052.205964300719	-273.45994375726457	3099.627897403557	1057.6264798338534	-293.3072375780744	3102.086099820614	1057.7000446213149	-306.69036101949746	3104.716027327234	1054.5950229275018	-317.47214136925345	3101.661564531531	1041.4215683143266	-272.3392380733054	3121.5526516575574	1040.0383031095046	-290.99651075435867	3128.892263901548	1035.882974482867	-307.6649362577245	3127.7896352853245	1034.6694833570289	-318.95976632100763	3123.055319089178	1034.5891018673026	-328.93720359824283	3102.50618328792	1031.251068532647	-270.67226283649137	3122.36606001085	1024.4015584379667	-287.967290285497	3130.413838663009	1018.5257914201693	-305.87998597541434	3129.102158915465	1016.4180315042911	-319.3744035365432	3123.931004548718	1016.0171356866609	-330.22717343094035	3102.669736545907	1024.1088579047284	-268.98187317554465	3120.827871311026	1011.7936266740487	-282.9072956117863	3127.849886889297	1005.3118690727639	-298.21125005443054	3126.5886607778452	1002.5563080849482	-311.06368729713637	3121.7283538317124	1001.837010685218	-321.1903119070661	3101.6957067494977	1015.85453539034	-266.7811659003614	3118.0058990393195	999.4965412884345	-278.0800697002667	3123.560894297165	992.2374296387846	-289.79266072111005	3122.6080656443905	989.2267855774259	-298.9049788536753	3118.28370169543	988.0136753553166	-307.72456125565304	2799.1952475025732	1224.993156116155	-107.94505003344132	2759.3345517305074	1175.3020770545957	-70.93959510470404	2906.4539616819475	1085.3625176702844	-125.56900334852668	3040.6692050917422	1030.4782004024041	-185.30862748479322	3050.8062102830304	1052.522990843758	-192.80575673440077	3070.048648876412	1058.6659268729543	-186.13574682680613	3084.830775749165	1059.3290642939542	-180.87695452573277	3098.3359976956117	1056.789520604193	-175.96783814959687	3056.437344710765	1042.3219939993232	-192.66213651829494	3086.751831820482	1043.8336932046236	-195.6949904758301	3109.193366902703	1040.9621587045356	-190.4938786625315	3120.4060744204803	1039.8505710502002	-183.51160897264242	3127.839163024868	1039.384909139221	-175.20374603677965	3059.2041687486985	1032.251205728563	-190.53961032421128	3090.268197666049	1028.2794924740888	-192.35177281430268	3115.0248048970057	1023.8074522102172	-186.37729338156026	3128.681322821165	1021.8240034126657	-177.80993405874426	3136.877081076268	1021.0022025508706	-168.64986120478588	3060.386751289609	1025.114124343128	-189.03348388239746	3089.2569899915884	1015.4074787725243	-189.55736304904482	3111.0603263017497	1010.1475008148681	-184.04070189475615	3124.3528126388683	1007.5109364130914	-175.61254686274037	3132.115601258957	1006.395448204204	-166.92192989495967	3060.8604629036386	1016.714395481511	-186.65172700291575	3087.6466090783747	1002.689002813103	-185.90254069160522	3105.331633590437	996.3941334386802	-180.99968045316135	3115.1364118880406	993.4634578828204	-174.61738423448506	3122.075824365247	991.8954591244564	-166.78379756706025
165	1.367	3081.203	893.81699	129.612	3134.746537473246	880.4809713199205	86.11785809449718	3032.7686538139524	477.5287384627665	49.12582065925261	3078.2560939990644	115.8429608823375	-19.73364598549391	2986.382583726979	31.540211026877866	119.85407909017387	3038.6856071845627	880.6956821414354	187.34302893040513	2930.9636467560813	492.42985114043523	299.72506711464695	2815.2267100491736	89.83809882461915	427.26103575990237	2671.753993988114	34.4682374192332	315.9879224162561	3032.602508159891	1015.801326247918	73.61649268373588	2979.781463685886	1080.8374574349368	24.622350942239134	2920.6656937185353	1143.2734953824981	-28.54076994912357	2858.7513363575204	1194.5115157443026	-82.91470020605603	2791.0888992124574	1250.1289978303935	-138.4815809527742	2721.5476803893403	1295.4317936909533	-181.797141111645	2582.3013294032685	1372.1040261304288	-191.6913477950359	2827.2316736682965	1236.3582191071878	-132.50549656982002	2878.2173891717207	1253.7986483855152	-177.42629638680572	2977.0036581911995	1095.104318829916	-200.28837910255314	3083.466858535156	1032.1538164587	-256.26253769329884	3093.5472959500626	1052.4118175993494	-268.63413691523465	3095.943804820573	1057.6377723643832	-288.10470046492344	3098.2613206348437	1057.58764221026	-301.1919833169982	3100.7481860721023	1054.3895962791812	-311.69848739966125	3098.0020340780898	1041.6305466910778	-267.40592005118174	3117.403213853395	1039.8914618842111	-285.5929788016452	3124.4687288545733	1035.5516580253636	-301.83483732845235	3123.294939986667	1034.2761355723726	-312.873704356073	3118.568668872058	1034.1799299722265	-322.6455105559041	3098.784917989515	1031.5075231581473	-265.65951211179646	3118.133542524665	1024.336620613264	-282.45296974434376	3125.875750427238	1018.267051008422	-299.8911167501068	3124.475112088595	1016.0880495272206	-313.07236749126724	3119.3112507906735	1015.6715886854317	-323.69802085166	3098.9163823687377	1024.4073007452628	-263.9256988186923	3116.5856315877318	1011.8386254009571	-277.3659571015614	3123.3355118008863	1005.1961274186501	-292.2477947572249	3121.9853987592346	1002.3761918220121	-304.79364469333603	3117.1304885439304	1001.6443163831685	-314.70458447317355	3097.927229026995	1016.2166795560036	-261.68308046667977	3113.7762706614067	999.663255492065	-272.5133399320259	3119.1064410730437	992.2892958724699	-283.8767694233138	3118.0854349241686	989.2384035349688	-292.76006998936737	3113.7639284879874	988.0180119602429	-301.38548777152533	2799.7485934848005	1225.870064448027	-107.6266365426266	2760.741469084461	1177.573253112678	-70.41769909301283	2905.5473553516435	1085.7446564820193	-123.2531685089135	3037.6133537486685	1030.2923086148417	-181.1708011288648	3047.5236188791714	1052.1962704539378	-188.61018811639286	3066.4467163987783	1058.2142863903223	-182.0178752727989	3080.998176549552	1058.7992693887877	-176.79233836974944	3094.3040182303434	1056.2021332451288	-171.89310531422794	3053.1066516326428	1042.0130085575317	-188.36409130319822	3082.9600999309105	1043.3738243762577	-191.1718883723779	3105.0681047008266	1040.4027871668516	-185.933964420481	3116.109004740157	1039.236866376769	-179.02902043313546	3123.423868379758	1038.7313081047691	-170.8527560449403	3055.866405228892	1031.971773317222	-186.1983770132792	3086.4769296355853	1027.868877008458	-187.76763119917314	3110.8701339782924	1023.292656535037	-181.7481640896873	3124.31963503034	1021.2457654550667	-173.2717847660873	3132.3861608830066	1020.381336703127	-164.25457970414223	3057.0557397262774	1024.859393375916	-184.66608423661648	3085.525358145447	1015.0565435274644	-184.94546565659257	3107.0132270468125	1009.7104613766	-179.38506742571568	3120.106704106527	1007.015198142801	-171.04226486102817	3127.748302706382	1005.8608115702475	-162.48484013510168	3057.550723065709	1016.4927270075126	-182.27169930945615	3083.982331776161	1002.3993367406755	-181.28571336337424	3101.418475172866	996.0432714092839	-176.34184346070776	3111.079902073412	993.0735287836555	-170.01890906347862	3117.9129987513006	991.4732300344558	-162.301642182284
166	1.375	3081.203	893.81699	129.612	3133.994561305127	880.1456630543928	86.06629655346026	3032.433875753883	477.10413326200455	49.33669407248378	3080.277010171814	116.10121624299651	-21.008295631205037	2988.9438870755303	31.399810032990985	118.56402344159342	3039.42417931129	881.0227185831345	187.39085848695947	2931.7515345882125	492.69533364701766	299.556230865995	2815.977894370368	89.75504433917199	425.74635924670736	2672.5208765378716	33.98085089782289	314.70100303005876	3032.7361390083233	1015.8289651921556	73.56563300072033	2980.00247564495	1080.9524500095079	24.590488633205364	2920.9597186308883	1143.4942109305325	-28.529380960093956	2859.0653043275424	1194.8395269060495	-82.8161494878928	2791.445881598827	1250.5723245023448	-138.31250806237463	2722.1176126878936	1296.0960507980392	-181.74523674395564	2582.902906273868	1372.8367229716239	-191.48213194208665	2827.3209688744964	1236.2876534617956	-132.48259909472839	2877.0960415167065	1252.5117313065962	-176.85448727681637	2977.0249309926066	1096.117351386867	-197.9611324515332	3080.738698898439	1032.5291160336694	-252.22545143710067	3090.643943859587	1052.5693761558032	-264.4204224407023	3092.9374994895215	1057.6928766802775	-283.46626734062124	3095.1649572064025	1057.5856171879493	-296.2330762112797	3097.561038381201	1054.3521109219719	-306.4512837802534	3094.9995885645935	1041.8084134522846	-263.10079067017597	3113.9879776697667	1039.866634789591	-280.72883358863254	3120.8581153182668	1035.4428732832746	-296.51044970264405	3119.660282074977	1034.1506393756927	-307.28758857021944	3114.979825857885	1034.0645369390459	-316.8592261843606	3095.751268802402	1031.7338366541362	-261.3032744215746	3114.680365500175	1024.3914212176255	-277.52385933981105	3122.2067133627247	1018.2373577881382	-294.45477271648804	3120.775788910453	1016.0416101897663	-307.3178494113328	3115.661434354908	1015.637866260314	-317.7233104522322	3095.870085323363	1024.6724874332313	-259.5480689498006	3113.1490544115964	1011.9823019825986	-272.45766676579683	3119.708741287131	1005.2737144487204	-286.8931643414724	3118.3283271043674	1002.4416394728236	-299.129862635925	3113.519450088516	1001.723622242142	-308.83270142069637	3094.8872566829673	1016.5366929057753	-257.2934406197458	3110.3782927197044	999.9037883758913	-267.6309074091399	3115.5546774141644	992.4892273099535	-278.63263317177797	3114.5108513999558	989.4354384376178	-287.28836111103067	3110.2297096430825	988.2307529181558	-295.72824099488207	2800.332846439247	1226.7604011933415	-107.33420649948329	2762.2030785159986	1179.9018650365945	-69.90141524792925	2904.501024698593	1085.8303224711447	-120.98830974484034	3035.117702142172	1031.232177916153	-176.61538066736767	3044.7625584527136	1053.0293858246455	-183.93305928974237	3063.3256488426346	1058.9395594075506	-177.38035511211777	3077.6249893379036	1059.459582857109	-172.16630618725154	3090.7194407770567	1056.8169691155667	-167.26288166605482	3050.3205211390136	1042.8744897870286	-183.59356160152703	3079.7059908855385	1044.145305989927	-186.11921109931123	3101.4651413974884	1041.1020026823587	-180.81602914432668	3112.313892122725	1039.8845896028931	-173.97747402490404	3119.4863995782357	1039.331979253327	-165.92830644976962	3053.091622066803	1032.863512231412	-181.400124799295	3083.251838976011	1028.6892037174134	-182.6791481164525	3107.2673589948213	1024.038399904733	-176.58589312137582	3120.4864729951223	1021.9314333689629	-168.18837321705854	3128.3979314125595	1021.0165202376634	-159.30963172338673	3054.30104857949	1025.7749523196703	-179.85395431397373	3082.3849312053308	1015.9292092896019	-179.85681578424726	3103.5473716598417	1010.5225977198796	-174.22994246209697	3116.4206176903313	1007.7717658801519	-165.9620580697154	3123.917361311306	1006.5710381522493	-157.5342808466681	3054.831698099104	1017.437196047544	-177.4635045322802	3080.9317952254105	1003.3227496375428	-176.22122404981218	3098.1148947763368	996.9253870749958	-171.22196706431382	3107.6193369353277	993.9185801664108	-164.9526350873484	3114.3262151703966	992.2792261433585	-157.3496147428208
167	1.383	3081.203	893.81699	129.612	3133.2770798586594	879.8403346816549	86.0686337678429	3032.17427261053	476.69779332425384	49.58320311807379	3081.881736742384	116.37491379106726	-22.269521877964905	2991.093213265368	31.285323623549484	117.28929302937021	3040.1245048427418	881.3216343083106	187.39097971221744	2932.3532228922763	492.9756764015868	299.34548709658054	2816.6587430165914	89.68399025826005	424.25201783632946	2673.2164128198897	33.68894460671046	313.3542305379925	3032.878201761995	1015.8464561662464	73.48702433955705	2980.2286880427087	1081.0439191556359	24.51846801068957	2921.253617842617	1143.675141930837	-28.569126176117415	2859.372562268879	1195.111823613865	-82.77423155042652	2791.7848721714927	1250.9410871247405	-138.20315790023434	2722.6202098257227	1296.6469421734246	-181.70150255776068	2583.4387128534036	1373.464613821135	-191.25069311230297	2827.3766908991392	1236.190172940458	-132.46768109850413	2875.8525009936257	1251.0756153792777	-176.26817334995354	2977.380729101731	1097.3778292036932	-195.68816392606232	3078.067898304518	1032.4425405322452	-248.70062033600993	3087.784819587301	1052.4231120392412	-260.56000619302495	3090.0807451754304	1057.5922236219524	-279.1403157625911	3092.3084652714574	1057.5317852694532	-291.57411022244185	3094.7035751347316	1054.3501924760146	-301.507155212405	3092.094715468414	1041.7041697424659	-259.1820061852721	3110.821952246916	1039.8192910991208	-276.1578463057045	3117.6358217126317	1035.4697244103738	-291.4640991620202	3116.493271265563	1034.2259274296568	-301.99169743070456	3111.9194625037303	1034.1814737326488	-311.38781636066926	3092.857668739502	1031.6702105369257	-257.38219199266	3111.538106980714	1024.4052523893754	-272.9653997397651	3119.0055481538384	1018.3373684334667	-289.3793846678558	3117.6425170869707	1016.2025607323397	-301.9422564389041	3112.6454320993003	1015.8456061874658	-312.1560842892904	3092.989779299011	1024.635863511115	-255.64203707411525	3110.053535366833	1012.0378277874274	-267.99357226979066	3116.5648302267555	1005.4095679826144	-281.9813417072008	3115.2514722399924	1002.6390441441555	-293.92997143388595	3110.5536027504145	1001.9663335644963	-303.4533388880544	3092.0403542678755	1016.531443885894	-253.4234067909176	3107.3500286233675	1000.0016108146414	-263.27110714507364	3112.4932177147384	992.6591074483233	-273.92115614341316	3111.500992149791	989.653954440952	-282.37007792598257	3107.3197317553563	988.491555747577	-290.65288234350743	2800.925134410671	1227.5425130347523	-107.15272748109598	2763.685660078061	1182.1144745653273	-69.51802125536939	2903.6124304881246	1085.9686221708853	-118.88224508808267	3033.1919016143024	1033.0276377241737	-172.0422515377234	3042.5564382593825	1054.7355205730314	-179.22069783026723	3060.7430925382064	1060.5412201381555	-172.7112470887588	3074.781145713907	1060.9976093668936	-167.515008645472	3087.658509562022	1058.3097511038745	-162.61590224761656	3048.096811022232	1044.6083302536697	-178.79862590578315	3077.0083453076877	1045.804956559403	-181.05082690133918	3098.4107581334883	1042.692944553077	-175.69448307943347	3109.0590191365295	1041.4217661955377	-168.92939590589725	3116.0799465652763	1040.8171981297924	-161.0128862046122	3050.8854700378106	1034.623933576548	-176.58774418812263	3080.592930559613	1030.391647490018	-177.5905791284212	3104.2229991674812	1025.6695955401497	-171.43807060350014	3117.2020641649356	1023.4995492263018	-163.12859052037822	3124.94855733252	1022.5286576881808	-154.3947088040854	3052.1195810508766	1027.5562651990117	-175.0347001096199	3079.819671593669	1017.6773365778607	-174.7796036160113	3100.6507687554326	1012.2125229142579	-169.10026556380416	3113.2949191731977	1009.4029170449836	-160.9168690503361	3120.6377169450934	1008.1505370388675	-152.62509204071515	3052.6909562978876	1019.2430176206345	-172.65628004566975	3078.4646138198896	1005.1139521735086	-171.17960707361254	3095.3912598373777	998.676208354182	-166.1381973603578	3104.7328938170695	995.6295421378355	-159.93042122888116	3111.305869304768	993.9461642929147	-152.4478362694254
